<svg xmlns="http://www.w3.org/2000/svg" viewBox="0 0 160 100" width="160" height="100"><defs><linearGradient id="f" x1="0" y1="0" x2="0" y2="1"><stop offset="0" stop-color="#78281a"/><stop offset="1" stop-color="#f0a03c"/></linearGradient><linearGradient id="v" x1="0" y1="0" x2="0" y2="1"><stop offset=".35" stop-color="#041C2C" stop-opacity="0"/><stop offset="1" stop-color="#041C2C" stop-opacity=".92"/></linearGradient><linearGradient id="h" x1="0" y1="0" x2="1" y2="0"><stop offset="0" stop-color="#041C2C" stop-opacity=".75"/><stop offset=".6" stop-color="#041C2C" stop-opacity="0"/></linearGradient></defs><rect width="160" height="100" fill="url(#f)"/><rect x="0" y="0" width="112" height="100" rx="0" fill="url(#h)"/><rect x="12" y="40" width="52" height="8" rx="1.5" fill="#ffffff"/><rect x="12" y="52" width="38" height="3" rx="1.5" fill="#c8d2da"/><rect x="112" y="0" width="48" height="100" rx="0" fill="#041C2C"/><rect x="112" y="0" width="1.4" height="100" rx="0" fill="#FDD26E"/><rect x="116" y="4" width="40" height="20" rx="2" fill="#FDD26E" fill-opacity=".12"/><rect x="118" y="8" width="14" height="12" rx="1.5" fill="#c07030" stroke="#FDD26E" stroke-width=".6"/><rect x="135" y="13" width="18" height="2.4" rx="1" fill="#ffffff"/><rect x="116" y="28" width="40" height="20" rx="2" fill="#041C2C"/><rect x="118" y="32" width="14" height="12" rx="1.5" fill="#3a60a0" opacity=".6"/><rect x="135" y="37" width="18" height="2.4" rx="1" fill="#c8d2da"/><rect x="116" y="52" width="40" height="20" rx="2" fill="#041C2C"/><rect x="118" y="56" width="14" height="12" rx="1.5" fill="#4a8a4a" opacity=".6"/><rect x="135" y="61" width="18" height="2.4" rx="1" fill="#c8d2da"/><rect x="116" y="76" width="40" height="20" rx="2" fill="#041C2C"/><rect x="118" y="80" width="14" height="12" rx="1.5" fill="#8a4a8a" opacity=".6"/><rect x="135" y="85" width="18" height="2.4" rx="1" fill="#c8d2da"/></svg>
