<svg xmlns="http://www.w3.org/2000/svg" viewBox="0 0 160 100" width="160" height="100"><defs><pattern id="m" width="12" height="12" patternUnits="userSpaceOnUse" patternTransform="rotate(45)"><rect width="12" height="12" fill="#ede6d6"/><rect width="6" height="12" fill="#e4dbc6"/></pattern><linearGradient id="o" x1="0" y1="0" x2="0" y2="1"><stop offset="0" stop-color="#fbe38d"/><stop offset="1" stop-color="#e1b93c"/></linearGradient></defs><rect width="160" height="100" fill="#ffffff"/><rect x="10" y="30" width="22" height="3" rx="2" fill="#b8872e"/><rect x="10" y="37" width="56" height="9" rx="2" fill="#0c0f16"/><rect x="10" y="49" width="40" height="9" rx="2" fill="#0c0f16"/><rect x="10" y="63" width="26" height="8" rx="2" fill="url(#o)"/><rect x="78" y="14" width="72" height="72" rx="4" fill="url(#m)"/><path d="M114 54 c-4 -6 -6 -8 -6 -11 a6 6 0 0 1 12 0 c0 3 -2 5 -6 11z" fill="#ff6b00"/><circle cx="114" cy="43" r="2.2" fill="#fff"/></svg>
