<svg xmlns="http://www.w3.org/2000/svg" viewBox="0 0 160 100" width="160" height="100"><defs><pattern id="m" width="12" height="12" patternUnits="userSpaceOnUse" patternTransform="rotate(45)"><rect width="12" height="12" fill="#ede6d6"/><rect width="6" height="12" fill="#e4dbc6"/></pattern><linearGradient id="o" x1="0" y1="0" x2="0" y2="1"><stop offset="0" stop-color="#fbe38d"/><stop offset="1" stop-color="#e1b93c"/></linearGradient></defs><rect width="160" height="100" fill="#ffffff"/><rect x="10" y="8" width="140" height="60" rx="4" fill="url(#m)"/><path d="M80 42 c-4 -6 -6 -8 -6 -11 a6 6 0 0 1 12 0 c0 3 -2 5 -6 11z" fill="#ff6b00"/><circle cx="80" cy="31" r="2.2" fill="#fff"/><rect x="46" y="56" width="68" height="36" rx="3" fill="#ffffff" stroke="#e5e5e5" stroke-width="0.6"/><rect x="46" y="56" width="68" height="3" rx="1" fill="#e1b93c"/><rect x="64" y="64" width="32" height="5" rx="2" fill="#0c0f16"/><rect x="58" y="73" width="44" height="2.5" rx="2" fill="#9a9a9a"/><rect x="68" y="80" width="24" height="7" rx="2" fill="url(#o)"/></svg>
