<svg xmlns="http://www.w3.org/2000/svg" viewBox="0 0 160 100" width="160" height="100"><rect width="160" height="100" fill="#041C2C"/><ellipse cx="80" cy="50" rx="34" ry="34" fill="none" stroke="#FDD26E" stroke-opacity=".4" stroke-dasharray="2 2"/><circle cx="80" cy="50" r="17" fill="#0f4262" stroke="#FDD26E" stroke-width="1.2"/><rect x="70" y="46" width="20" height="3.5" rx="2" fill="#FDD26E"/><rect x="72" y="52" width="16" height="2" rx="2" fill="#EAEFF5"/><rect x="63.0" y="8.0" width="34" height="12" rx="2" fill="#072537" stroke="#FDD26E" stroke-opacity=".5" stroke-width=".5"/><rect x="66.0" y="11.5" width="5" height="3.5" rx="1" fill="none" stroke="#FDD26E" stroke-width=".8"/><rect x="74.0" y="11.0" width="18" height="2.2" rx="2" fill="#EAEFF5"/><rect x="74.0" y="15.0" width="14" height="1.6" rx="2" fill="#8aa0b2"/><rect x="108.0333209967908" y="26.0" width="34" height="12" rx="2" fill="#072537" stroke="#FDD26E" stroke-opacity=".5" stroke-width=".5"/><rect x="111.0333209967908" y="29.5" width="5" height="3.5" rx="1" fill="none" stroke="#FDD26E" stroke-width=".8"/><rect x="119.0333209967908" y="29.0" width="18" height="2.2" rx="2" fill="#EAEFF5"/><rect x="119.0333209967908" y="33.0" width="14" height="1.6" rx="2" fill="#8aa0b2"/><rect x="108.03332099679082" y="62.0" width="34" height="12" rx="2" fill="#072537" stroke="#FDD26E" stroke-opacity=".5" stroke-width=".5"/><rect x="111.03332099679082" y="65.5" width="5" height="3.5" rx="1" fill="none" stroke="#FDD26E" stroke-width=".8"/><rect x="119.03332099679082" y="65.0" width="18" height="2.2" rx="2" fill="#EAEFF5"/><rect x="119.03332099679082" y="69.0" width="14" height="1.6" rx="2" fill="#8aa0b2"/><rect x="63.0" y="80.0" width="34" height="12" rx="2" fill="#072537" stroke="#FDD26E" stroke-opacity=".5" stroke-width=".5"/><rect x="66.0" y="83.5" width="5" height="3.5" rx="1" fill="none" stroke="#FDD26E" stroke-width=".8"/><rect x="74.0" y="83.0" width="18" height="2.2" rx="2" fill="#EAEFF5"/><rect x="74.0" y="87.0" width="14" height="1.6" rx="2" fill="#8aa0b2"/><rect x="17.9666790032092" y="62.000000000000014" width="34" height="12" rx="2" fill="#072537" stroke="#FDD26E" stroke-opacity=".5" stroke-width=".5"/><rect x="20.9666790032092" y="65.50000000000001" width="5" height="3.5" rx="1" fill="none" stroke="#FDD26E" stroke-width=".8"/><rect x="28.9666790032092" y="65.00000000000001" width="18" height="2.2" rx="2" fill="#EAEFF5"/><rect x="28.9666790032092" y="69.00000000000001" width="14" height="1.6" rx="2" fill="#8aa0b2"/><rect x="17.966679003209194" y="25.999999999999996" width="34" height="12" rx="2" fill="#072537" stroke="#FDD26E" stroke-opacity=".5" stroke-width=".5"/><rect x="20.966679003209194" y="29.499999999999996" width="5" height="3.5" rx="1" fill="none" stroke="#FDD26E" stroke-width=".8"/><rect x="28.966679003209194" y="28.999999999999996" width="18" height="2.2" rx="2" fill="#EAEFF5"/><rect x="28.966679003209194" y="33.0" width="14" height="1.6" rx="2" fill="#8aa0b2"/></svg>
