<svg xmlns="http://www.w3.org/2000/svg" viewBox="0 0 160 100" width="160" height="100"><rect width="160" height="100" fill="#fff"/><rect x="55" y="9" width="50" height="6" rx="1.5" fill="#0a0a0a"/><rect x="10" y="24" width="66" height="30" rx="3" fill="#fff" stroke="#e5e5e5"/><circle cx="21" cy="39" r="5.5" fill="#b62424"/><rect x="31" y="35" width="30" height="3" rx="1.5" fill="#0a0a0a"/><rect x="31" y="41" width="38" height="2" rx="1.5" fill="#a3a3a3"/><rect x="84" y="24" width="66" height="30" rx="3" fill="#fff" stroke="#e5e5e5"/><circle cx="95" cy="39" r="5.5" fill="#b62424"/><rect x="105" y="35" width="30" height="3" rx="1.5" fill="#0a0a0a"/><rect x="105" y="41" width="38" height="2" rx="1.5" fill="#a3a3a3"/><rect x="10" y="60" width="66" height="30" rx="3" fill="#fff" stroke="#e5e5e5"/><circle cx="21" cy="75" r="5.5" fill="#b62424"/><rect x="31" y="71" width="30" height="3" rx="1.5" fill="#0a0a0a"/><rect x="31" y="77" width="38" height="2" rx="1.5" fill="#a3a3a3"/><rect x="84" y="60" width="66" height="30" rx="3" fill="#fff" stroke="#e5e5e5"/><circle cx="95" cy="75" r="5.5" fill="#b62424"/><rect x="105" y="71" width="30" height="3" rx="1.5" fill="#0a0a0a"/><rect x="105" y="77" width="38" height="2" rx="1.5" fill="#a3a3a3"/></svg>