<svg xmlns="http://www.w3.org/2000/svg" viewBox="0 0 160 100" width="160" height="100"><defs><linearGradient id="b" x1="0" y1="1" x2="0" y2="0"><stop offset="0" stop-color="#c9a14a"/><stop offset="0.5" stop-color="#fde6a6"/><stop offset="1" stop-color="#e2bd6a"/></linearGradient><linearGradient id="g" x1="0" y1="0" x2="1" y2="1"><stop offset="0" stop-color="#FDD26E"/><stop offset="1" stop-color="#e0b85a"/></linearGradient><radialGradient id="f" cx="0.6" cy="0.5" r="0.8"><stop offset="0" stop-color="#6a5a44"/><stop offset="1" stop-color="#1b2a33"/></radialGradient></defs><rect width="160" height="100" fill="#041C2C"/><rect x="0" y="0" width="64" height="100" rx="0" fill="url(#g)"/><rect x="10" y="36" width="40" height="7" rx="1.5" fill="#041C2C"/><rect x="10" y="47" width="44" height="3" rx="1.5" fill="#2d3a44"/><rect x="10" y="56" width="28" height="8" rx="2" fill="#041C2C"/><rect x="76" y="26" width="72" height="50" rx="2" fill="#ece8e0"/><rect x="76" y="62.0" width="72" height="14.000000000000002" rx="0" fill="#cdc4b4"/><rect x="81.76" y="45.0" width="8.64" height="17.0" rx="1" fill="#282828"/><rect x="94.72" y="40.0" width="8.64" height="22.0" rx="1" fill="#fafafa"/><rect x="107.68" y="47.0" width="8.64" height="15.0" rx="1" fill="#be2828"/><rect x="120.64" y="42.0" width="8.64" height="20.0" rx="1" fill="#3c3c46"/><rect x="133.6" y="46.0" width="8.64" height="16.0" rx="1" fill="#e6c878"/></svg>
