<svg xmlns="http://www.w3.org/2000/svg" viewBox="0 0 160 100" width="160" height="100"><rect width="160" height="100" fill="#011127"/><path d="M68 0 L92 0 L118 90 L42 90Z" fill="#fadd8f" opacity=".12"/><rect x="40" y="7" width="80" height="7" rx="1.5" fill="#fadd8f"/><rect x="52" y="17" width="56" height="4" rx="1.5" fill="#fadd8f"/><rect x="60" y="24" width="40" height="2" rx="1.5" fill="#8a94a6"/><g transform="rotate(-6 56 50)"><rect x="38" y="40" width="36" height="22" rx="2" fill="#b62424"/><rect x="42" y="45" width="12" height="3" rx="1.5" fill="#fadd8f"/></g><rect x="86" y="31" width="26" height="38" rx="2" fill="#b62424"/><ellipse cx="99" cy="71" rx="20" ry="3.5" fill="#ca951a"/><line x1="50" y1="78" x2="110" y2="78" stroke="#ffffff" stroke-opacity=".15" stroke-width=".6"/><circle cx="73" cy="84" r="2" fill="#fff"/><circle cx="80" cy="84" r="2" fill="#fff"/><circle cx="87" cy="84" r="2" fill="#fff"/><rect x="0" y="92" width="160" height="8" rx="0" fill="#000814"/></svg>