<svg xmlns="http://www.w3.org/2000/svg" viewBox="0 0 160 100" width="160" height="100"><defs><linearGradient id="g0" x1="0" y1="0" x2="1" y2="1"><stop offset="0" stop-color="#7a1f3d"/><stop offset="1" stop-color="#e2a33b"/></linearGradient><linearGradient id="g1" x1="0" y1="0" x2="1" y2="1"><stop offset="0" stop-color="#1c2a55"/><stop offset="1" stop-color="#4f8fd6"/></linearGradient><linearGradient id="g2" x1="0" y1="0" x2="1" y2="1"><stop offset="0" stop-color="#1e5b3a"/><stop offset="1" stop-color="#c6d34a"/></linearGradient><linearGradient id="g3" x1="0" y1="0" x2="1" y2="1"><stop offset="0" stop-color="#4b1f7a"/><stop offset="1" stop-color="#e25b9c"/></linearGradient><linearGradient id="g4" x1="0" y1="0" x2="1" y2="1"><stop offset="0" stop-color="#7a4a1f"/><stop offset="1" stop-color="#f1d27b"/></linearGradient></defs><rect width="160" height="100" fill="#ffffff"/><rect x="10" y="8" width="50" height="5" rx="3" fill="#1f2937"/><rect x="10" y="17" width="70" height="3" rx="3" fill="#9ca3af"/><circle cx="136" cy="14" r="5" fill="none" stroke="#c68f12"/><circle cx="150" cy="14" r="5" fill="none" stroke="#c68f12"/><rect x="10" y="30" width="33" height="60" rx="3" fill="url(#g0)"/><rect x="47" y="30" width="33" height="60" rx="3" fill="url(#g1)"/><rect x="84" y="30" width="33" height="60" rx="3" fill="url(#g2)"/><rect x="121" y="30" width="33" height="60" rx="3" fill="url(#g3)"/><rect x="158" y="30" width="10" height="60" rx="3" fill="url(#g4)"/></svg>
