<svg xmlns="http://www.w3.org/2000/svg" viewBox="0 0 160 100" width="160" height="100"><defs><pattern id="f" width="20" height="20" patternUnits="userSpaceOnUse"><rect width="20" height="20" fill="#2a1a10"/><circle cx="5" cy="6" r="2.4" fill="#e8b54a"/><circle cx="14" cy="13" r="2" fill="#c0392b"/><circle cx="16" cy="4" r="1.6" fill="#6c4ab6"/></pattern></defs><rect width="160" height="100" fill="#ffffff"/><rect x="60" y="6" width="40" height="5" rx="2" fill="#1f2937"/><rect x="52" y="16" width="98" height="78" rx="4" fill="url(#f)"/><rect x="10" y="22" width="54" height="13" rx="3" fill="#ffffff" stroke="#ececec" stroke-width="0.8"/><rect x="13" y="25" width="7" height="7" rx="1.5" fill="#ff6b00"/><rect x="23" y="27" width="34" height="2.5" rx="2" fill="#a0a0a0"/><rect x="18" y="39" width="54" height="13" rx="3" fill="#ffffff" stroke="#ececec" stroke-width="0.8"/><rect x="21" y="42" width="7" height="7" rx="1.5" fill="#ff6b00"/><rect x="31" y="44" width="34" height="2.5" rx="2" fill="#a0a0a0"/><rect x="10" y="56" width="54" height="13" rx="3" fill="#ffffff" stroke="#ececec" stroke-width="0.8"/><rect x="13" y="59" width="7" height="7" rx="1.5" fill="#ff6b00"/><rect x="23" y="61" width="34" height="2.5" rx="2" fill="#a0a0a0"/><rect x="18" y="73" width="54" height="13" rx="3" fill="#ffffff" stroke="#ececec" stroke-width="0.8"/><rect x="21" y="76" width="7" height="7" rx="1.5" fill="#ff6b00"/><rect x="31" y="78" width="34" height="2.5" rx="2" fill="#a0a0a0"/></svg>
