<svg xmlns="http://www.w3.org/2000/svg" viewBox="0 0 160 100" width="160" height="100"><defs><linearGradient id="m" x1="0" y1="0" x2="0" y2="1"><stop offset="0" stop-color="#fbe38d"/><stop offset="1" stop-color="#e1b93c"/></linearGradient><linearGradient id="t" x1="0" y1="0" x2="1" y2="1"><stop offset="0" stop-color="#2b2b2b"/><stop offset="1" stop-color="#141414"/></linearGradient></defs><rect width="160" height="100" fill="#ffffff"/><rect x="10" y="10" width="110" height="4" rx="2" fill="#ececec"/><rect x="10" y="21" width="90" height="4" rx="2" fill="#ececec"/><rect x="10" y="32" width="120" height="4" rx="2" fill="#ececec"/><rect x="10" y="43" width="80" height="4" rx="2" fill="#ececec"/><rect x="10" y="54" width="100" height="4" rx="2" fill="#ececec"/><rect x="10" y="65" width="70" height="4" rx="2" fill="#ececec"/><rect x="10" y="76" width="110" height="4" rx="2" fill="#ececec"/><rect x="10" y="87" width="95" height="4" rx="2" fill="#ececec"/><circle cx="143" cy="30" r="5" fill="#3b3b3b"/><circle cx="143" cy="43" r="5" fill="#3b3b3b"/><rect x="98" y="66" width="56" height="26" rx="4" fill="url(#t)" stroke="#e1b93c" stroke-width="1.5"/><rect x="103" y="71" width="16" height="13" rx="2" fill="#ff3c00"/><rect x="123" y="76" width="26" height="5" rx="1" fill="url(#m)"/><path d="M128 66 l8 0 l-10 26 l-8 0 z" fill="#fff" fill-opacity="0.18"/></svg>
