<svg xmlns="http://www.w3.org/2000/svg" viewBox="0 0 160 100" width="160" height="100"><defs><pattern id="f" width="14" height="14" patternUnits="userSpaceOnUse" patternTransform="rotate(30)"><rect width="14" height="14" fill="#4a2e18"/><rect width="7" height="14" fill="#6b4520"/></pattern><linearGradient id="l" x1="0" y1="0" x2="1" y2="1"><stop offset="0" stop-color="#2b3a68"/><stop offset="1" stop-color="#b88a3a"/></linearGradient><filter id="n"><feGaussianBlur stdDeviation="1.2"/></filter><filter id="b"><feGaussianBlur stdDeviation="2.5"/></filter></defs><rect x="0" y="0" width="160" height="100" rx="0" fill="url(#f)"/><rect x="0" y="0" width="80" height="100" rx="0" fill="#12081c"/><rect x="10" y="32" width="62" height="5" rx="2" fill="#ff2f8f" filter="url(#n)"/><rect x="10" y="32" width="62" height="5" rx="2" fill="#ff7ab8"/><rect x="10" y="41" width="56" height="5" rx="2" fill="#ff2f8f" filter="url(#n)"/><rect x="10" y="41" width="56" height="5" rx="2" fill="#ff7ab8"/><rect x="10" y="50" width="40" height="5" rx="2" fill="#ff2f8f" filter="url(#n)"/><rect x="10" y="50" width="40" height="5" rx="2" fill="#ff7ab8"/><rect x="10" y="62" width="28" height="9" rx="2" fill="#e6006e"/><rect x="92" y="20" width="56" height="60" rx="3" fill="url(#l)"/></svg>
